<svg xmlns="http://www.w3.org/2000/svg" xmlns:xlink="http://www.w3.org/1999/xlink" viewBox="0 0 302.92 109.87"><defs><style>.cls-1{fill:none;}.cls-2{clip-path:url(#clip-path);}.cls-3{fill:#cbdd00;}.cls-4{fill:#00b9b4;}.cls-5{fill:#54c6e7;}.cls-6{fill:#e53d52;}.cls-7{fill:#752157;}.cls-8{fill:#007481;}.cls-9{fill:#00a5df;}</style><clipPath id="clip-path" transform="translate(-13.42 -14.04)"><rect class="cls-1" width="328.98" height="168.51"/></clipPath></defs><title>Black Logo</title><g id="Layer_2" data-name="Layer 2"><g id="Layer_1-2" data-name="Layer 1"><polygon points="124.91 18.34 144.87 18.34 144.87 22.89 130.12 22.89 130.12 33.74 142.38 33.74 142.38 38.3 130.12 38.3 130.12 50.51 124.91 50.51 124.91 18.34"/><g class="cls-2"><path d="M181.4,52.66c0,7.8-2.39,12.4-10.47,12.4s-10.47-4.6-10.47-12.4c0-7.61,2.63-12.12,10.47-12.12s10.47,4.51,10.47,12.12m-5.17,0c0-5.45-1.17-7.8-5.31-7.8s-5.31,2.35-5.31,7.8.94,8.08,5.31,8.08,5.31-2.63,5.31-8.08" transform="translate(-13.42 -14.04)"/><path d="M186.66,41.06h5.07v2.82a26.24,26.24,0,0,1,8-3.33v5.12a41.45,41.45,0,0,0-7.94,2.49V64.54h-5.12Z" transform="translate(-13.42 -14.04)"/><path d="M222.16,60.18l.09,3.8a58.35,58.35,0,0,1-9.49,1.08c-7,0-9.77-3.76-9.77-12,0-8.6,3.71-12.49,10.19-12.49s9.86,3.43,9.86,10.76L222.73,55H208.17c0,3.76,1.46,5.64,5.35,5.64,3.71,0,8.64-.42,8.64-.42M218,51c0-4.7-1.41-6.25-4.84-6.25s-5,1.74-5.07,6.25Z" transform="translate(-13.42 -14.04)"/><path d="M228.93,64.54V41.06H234v1.46a15.63,15.63,0,0,1,6.48-2c6.53,0,8.13,3.71,8.13,11.41V64.54h-5.07V52.1c0-4.7-.61-7-4.18-7A14.18,14.18,0,0,0,234,46.32V64.54Z" transform="translate(-13.42 -14.04)"/><path d="M271.81,45.9s-5.54-.75-8.36-.75-4.09.66-4.09,2.58c0,1.55,1,2,5.59,2.77,5.63,1,7.65,2.39,7.65,7.09,0,5.5-3.48,7.47-9.3,7.47a61.73,61.73,0,0,1-8.69-1l.19-4.27s5.64.75,8,.75c3.38,0,4.7-.7,4.7-2.77,0-1.64-.8-2.16-5.45-2.91-5.17-.85-7.8-2-7.8-7,0-5.31,4.13-7.28,8.78-7.28a60.74,60.74,0,0,1,8.83,1Z" transform="translate(-13.42 -14.04)"/><path d="M278.48,31.67h5.12v5.4h-5.12Zm0,9.39h5.12V64.54h-5.12Z" transform="translate(-13.42 -14.04)"/><path d="M306.57,41.44l-.19,4s-3.71-.38-5.49-.38c-4.88,0-6,2-6,7.37,0,6,1,8,6.06,8,1.79,0,5.5-.38,5.5-.38l.14,4.09a57.48,57.48,0,0,1-7.14.85c-7.23,0-9.72-3.57-9.72-12.59,0-8.41,2.82-11.93,9.82-11.93a50.14,50.14,0,0,1,7,.89" transform="translate(-13.42 -14.04)"/><path d="M133.72,75.72H144.1l8,32.17h-5.26l-1.74-6.9H132.74L131,107.9h-5.21Zm0,20.67h10.29l-3.95-16.3h-2.35Z" transform="translate(-13.42 -14.04)"/><path d="M157,107.9V84.41H162v1.46a15.61,15.61,0,0,1,6.48-2c6.53,0,8.13,3.71,8.13,11.41V107.9h-5.07V95.45c0-4.7-.61-7-4.18-7a14.17,14.17,0,0,0-5.31,1.22V107.9Z" transform="translate(-13.42 -14.04)"/><path d="M200.94,102.35a2,2,0,0,0,2.07,2.16l-.14,3.9c-2.87,0-4.51-.38-6.25-1.74a20.73,20.73,0,0,1-7.56,1.74c-4.65,0-7-2.58-7-7.47s2.72-6.67,7.75-7.09l6.06-.52V91.65c0-2.58-1.13-3.38-3.43-3.38-3.15,0-8.83.47-8.83.47l-.19-3.62a48.41,48.41,0,0,1,9.44-1.22c5.73,0,8.08,2.4,8.08,7.75Zm-10.52-4.89c-2.16.19-3.24,1.22-3.24,3.33s.89,3.43,2.87,3.43a22.26,22.26,0,0,0,5.82-1V97Z" transform="translate(-13.42 -14.04)"/><rect x="195.17" y="60.61" width="5.12" height="33.25"/><polygon points="210.58 70.38 215.56 89.49 216.82 89.49 221.8 70.38 226.87 70.38 217.95 103.96 212.93 103.96 215.74 93.86 211.7 93.86 205.55 70.38 210.58 70.38"/><path d="M252.74,88.78V99.11c0,3.52.14,4.74,2.58,4.74,1.31,0,3.85-.14,3.85-.14l.24,4.09a35,35,0,0,1-4.79.61c-5.31,0-7-2-7-8.74V88.78h-3V84.41h3V77.6h5.07v6.81h6.48v4.37Z" transform="translate(-13.42 -14.04)"/><path d="M264.81,75h5.12v5.4h-5.12Zm0,9.39h5.12V107.9h-5.12Z" transform="translate(-13.42 -14.04)"/><path d="M292.9,84.79l-.19,4s-3.71-.38-5.49-.38c-4.88,0-6,2-6,7.37,0,6,1,8,6.06,8,1.79,0,5.5-.37,5.5-.37l.14,4.09a57.42,57.42,0,0,1-7.14.85c-7.23,0-9.72-3.57-9.72-12.59,0-8.41,2.82-11.93,9.82-11.93a50.14,50.14,0,0,1,7,.89" transform="translate(-13.42 -14.04)"/><path d="M315.54,89.25s-5.54-.75-8.36-.75-4.09.66-4.09,2.58c0,1.55,1,2,5.59,2.77,5.64,1,7.66,2.4,7.66,7.09,0,5.5-3.48,7.47-9.3,7.47a61.63,61.63,0,0,1-8.69-1l.19-4.27s5.64.75,8,.75c3.38,0,4.7-.7,4.7-2.77,0-1.64-.8-2.16-5.45-2.91-5.17-.85-7.79-2-7.79-7,0-5.31,4.13-7.28,8.78-7.28a60.7,60.7,0,0,1,8.83,1Z" transform="translate(-13.42 -14.04)"/><path d="M62.61,123.9a11.42,11.42,0,0,1-5.71-1.62L36.55,110.56l-17.07-9.83a11.37,11.37,0,0,1-6.06-10.47q0-21.37,0-42.75a11.3,11.3,0,0,1,6-10.42Q38,26.45,56.51,15.78a11.44,11.44,0,0,1,12.1,0l13.54,7.81q12,6.9,24,13.84a10.73,10.73,0,0,1,5.53,9.73q0,7.72,0,15.44v5.21l.08,1.19v6.37c0,5.16,0,10.31,0,15.47a10.44,10.44,0,0,1-5.33,9.45C93.84,107.58,80.9,115,67.93,122.44a10.64,10.64,0,0,1-5.31,1.47m0-107.49a9.77,9.77,0,0,0-4.89,1.43Q39.18,28.52,20.65,39.16a9,9,0,0,0-4.81,8.35q0,21.38,0,42.75a9,9,0,0,0,4.87,8.4l17.07,9.83,20.35,11.72a8.28,8.28,0,0,0,8.65.15c13-7.4,25.9-14.85,38.44-22.16a8.06,8.06,0,0,0,4.15-7.4c0-5.15,0-10.3,0-15.45V70.17L109.26,69v-6.4q0-7.71,0-15.43a8.36,8.36,0,0,0-4.34-7.68Q93,32.52,81,25.63L67.42,17.82a9.53,9.53,0,0,0-4.83-1.41" transform="translate(-13.42 -14.04)"/><polygon class="cls-3" points="2.73 79.2 39.1 49.28 46.8 64.23 2.73 79.2"/><polygon class="cls-4" points="39.11 49.28 53.83 47.07 49.24 40.94 39.11 49.28"/><polygon class="cls-5" points="61.86 45.82 53.83 47.07 49.24 40.94 60.98 31.28 61.86 45.82"/><polygon class="cls-6" points="65.13 99.83 46.8 64.23 62.65 58.85 65.13 99.83"/><polygon class="cls-7" points="39.11 49.28 43.33 57.49 62.65 58.85 39.11 49.28"/><polygon class="cls-7" points="43.33 57.49 46.8 64.23 62.65 58.85 43.33 57.49"/><polygon class="cls-8" points="50.97 54.1 53.83 47.07 62.65 58.85 50.97 54.1"/><polygon class="cls-8" points="50.97 54.1 53.83 47.07 39.1 49.28 50.97 54.1"/><polygon class="cls-9" points="62.65 58.85 53.84 47.06 61.86 45.82 62.65 58.85"/></g></g></g></svg>