<svg width="136" height="68" viewBox="0 0 136 68" fill="none" xmlns="http://www.w3.org/2000/svg"><g clip-path="url(#clip0)"><path d="M6.626 56.022v11.514H0V38.703c0-.929.33-1.725.975-2.389.644-.663 1.437-.979 2.38-.979h10.904c3.42 0 5.965.88 7.65 2.622 1.735 1.742 2.611 4.33 2.611 7.763 0 3.252-.843 5.807-2.511 7.681-1.686 1.742-4.098 2.621-7.27 2.621H6.625zm0-5.806h6.427c1.735 0 2.99-.381 3.734-1.128.81-.68 1.206-1.874 1.206-3.55 0-1.427-.38-2.588-1.123-3.467-.876-.747-2.016-1.128-3.453-1.128H6.626v9.273zm34.946 16.291a11.468 11.468 0 01-4.148 1.26c-1.454.15-2.742.233-3.866.233-2.23 0-4.197-.614-5.866-1.825-1.685-1.21-2.511-3.235-2.511-6.038 0-2.621.76-4.496 2.28-5.608 1.52-1.128 3.47-1.874 5.833-2.24.314 0 .677-.049 1.123-.132.43-.1.925-.166 1.487-.232 2.726-.382 4.098-1.178 4.098-2.439 0-.929-.48-1.543-1.438-1.825-.958-.282-1.85-.414-2.66-.414-.876 0-1.652.132-2.33.381-.677.25-1.173.714-1.487 1.41h-6.245c.248-1.94 1.123-3.517 2.61-4.777 1.686-1.427 4.065-2.157 7.171-2.157 3.487 0 6.097.597 7.832 1.775 1.801 1.244 2.71 3.003 2.71 5.242v8.51c0 2.49-.446 4.447-1.355 5.857-.925 1.377-2 2.389-3.238 3.019zm-1.488-11.513c-.875.431-2.081.846-3.635 1.21l-2.148.465c-1.123.316-1.933.714-2.428 1.212-.43.68-.645 1.376-.645 2.057 0 .929.281 1.692.843 2.24.562.497 1.371.746 2.429.746 1.735 0 3.106-.498 4.097-1.493.992-.996 1.487-2.373 1.487-4.115v-2.322zm6.99 12.541V55.459c0-2.438.363-4.479 1.074-6.138.71-1.659 1.685-2.986 2.94-3.981 1.174-.93 2.562-1.626 4.148-2.057a18.583 18.583 0 014.89-.647h.926v6.652h-2.148c-1.8 0-3.14.431-4.015 1.31-.876.88-1.305 2.24-1.305 4.115v12.823h-6.51zm31.873-7.68h4.659c-.677 2.62-1.983 4.611-3.916 5.988C77.757 67.287 75.344 68 72.42 68c-3.536 0-6.312-1.161-8.295-3.467-1.982-2.24-2.99-5.458-2.99-9.639 0-3.998.958-7.116 2.891-9.356 1.983-2.306 4.759-3.467 8.295-3.467 3.734 0 6.626 1.128 8.674 3.367 1.124 1.377 1.933 2.97 2.43 4.778h-6.527c-.314-.63-.628-1.095-.926-1.41-.81-.88-1.95-1.31-3.453-1.31-1.371 0-2.478.43-3.354 1.31-1.124 1.244-1.685 3.301-1.685 6.171s.561 4.894 1.685 6.089c.81.995 2.016 1.493 3.635 1.493 1.057 0 1.95-.216 2.71-.647.181-.067.363-.166.512-.332l.512-.514c.132-.183.38-.432.744-.747.363-.299.925-.464 1.668-.464z" fill="#fff"/><path d="M95.734 67.535l-11.087-32.2h7.37l6.79 24.055 6.246-21.616c.38-1.626 1.421-2.439 3.172-2.439h4.759l-10.905 32.2h-6.345zM136 42.635v14.598c0 4.43-1.157 7.333-3.453 8.71C130.25 67.32 127.739 68 124.996 68c-2.677-.133-5.106-.88-7.32-2.24-2.214-1.377-3.304-4.213-3.304-8.51V42.651h6.526v15.91c0 1.493.43 2.588 1.305 3.268a4.742 4.742 0 002.991 1.028 4.869 4.869 0 003.024-1.028c.892-.68 1.355-1.775 1.355-3.268V45.837c0-.88.297-1.626.892-2.24.595-.63 1.355-.93 2.28-.93H136v-.032zm-72.304-30.11L47.652.664a3.41 3.41 0 00-4.098.033L14.26 23.043a3.446 3.446 0 00-.66 4.81 3.413 3.413 0 004.791.664L45.653 7.731l12.342 9.124.496-.382 5.205-3.948zm3.651 11.231l5.949 4.396a3.421 3.421 0 004.791-.73 3.453 3.453 0 00-.727-4.81l-4.329-3.186-.496.382-5.188 3.948z" fill="#AEC586"/><path d="M53.435 23.043a3.446 3.446 0 00-.66 4.81 3.413 3.413 0 004.79.664l7.981-6.088 5.684-4.33L84.812 7.731l27.643 20.421c.132.1.281.183.429.266l.1.05c.148.066.297.132.446.182a.146.146 0 00.082.017c.132.05.281.082.413.099.017 0 .05.017.066.017.149.016.314.033.463.033h.116c.082 0 .148 0 .231-.017.05 0 .083 0 .132-.016l.248-.05c.033 0 .083-.017.116-.017l.347-.1s.016 0 .016-.016c.116-.033.215-.083.314-.133l.099-.05c.066-.033.149-.082.215-.116a.503.503 0 00.116-.082l.198-.15a.3.3 0 01.116-.083.93.93 0 00.181-.182c.034-.033.067-.05.083-.083l.248-.299a3.453 3.453 0 00-.727-4.81L86.811.663a2.884 2.884 0 00-.479-.299c-.05-.033-.115-.05-.165-.066l-.347-.15a4.338 4.338 0 00-.215-.05c-.099-.033-.215-.05-.314-.066-.082-.016-.148-.016-.231-.016C84.96 0 84.862 0 84.746 0c-.1 0-.198.017-.297.017-.083 0-.166 0-.232.016-.099.017-.215.05-.314.083-.066.017-.148.033-.215.05-.115.033-.214.083-.33.133-.066.033-.116.05-.182.083-.165.083-.33.182-.479.298L65.48 13.852l-5.684 4.33-6.361 4.86z" fill="#fff"/></g><defs><clipPath id="clip0"><path fill="#fff" d="M0 0h136v68H0z"/></clipPath></defs></svg>